<svg xmlns="http://www.w3.org/2000/svg" xmlns:xlink="http://www.w3.org/1999/xlink" width="400" height="240" viewBox="0 0 400 240">
  <defs>
    <clipPath id="clip-s_illu-rotate-pdf-pages_456x274.svg_6">
      <rect width="400" height="240"/>
    </clipPath>
  </defs>
  <g id="s_illu-rotate-pdf-pages_456x274.svg_6" data-name="s_illu-rotate-pdf-pages_456x274.svg – 6" clip-path="url(#clip-s_illu-rotate-pdf-pages_456x274.svg_6)">
    <rect width="400" height="240" fill="#fff"/>
    <g id="Group_291829" data-name="Group 291829" transform="translate(11.526 61.701)">
      <path id="Path_102974" data-name="Path 102974" d="M6.444,0H77.719c3.559,0,6.444,4.329,6.444,9.67V86.614c0,5.341-2.885,9.67-6.444,9.67H6.444C2.885,96.284,0,91.955,0,86.614V9.67C0,4.329,2.885,0,6.444,0Z" transform="translate(184.782 73.955) rotate(90)" fill="#fee"/>
      <path id="Path_102975" data-name="Path 102975" d="M6.444,0H77.719c3.559,0,6.444,4.333,6.444,9.677v77c0,5.345-2.885,9.677-6.444,9.677H6.444C2.885,96.357,0,92.024,0,86.68v-77C0,4.333,2.885,0,6.444,0Z" transform="translate(96.357 73.955) rotate(90)" fill="#fee"/>
      <path id="Path_102976" data-name="Path 102976" d="M6.863,0H82.779c3.79,0,6.863,4.317,6.863,9.641V86.357c0,5.325-3.073,9.641-6.863,9.641H6.863C3.073,96,0,91.682,0,86.357V9.641C0,4.317,3.073,0,6.863,0Z" transform="translate(136.64 0) rotate(90)" fill="#fee"/>
    </g>
    <g id="Rectangle_215552" data-name="Rectangle 215552" transform="translate(123.866 118.615)" fill="#ddeaf9" stroke="#2680eb" stroke-width="4">
      <rect width="86.24" height="87.927" rx="20" stroke="none"/>
      <rect x="2" y="2" width="82.24" height="83.927" rx="18" fill="none"/>
    </g>
    <rect id="Rectangle_215553" data-name="Rectangle 215553" width="14.608" height="13.971" rx="6.985" transform="translate(132.039 126.789)" fill="#fff"/>
    <g id="Group_291830" data-name="Group 291830" transform="translate(135.367 130.297)">
      <path id="Path_102845" data-name="Path 102845" d="M10.408,3.593l-.436-.339a.3.3,0,0,0-.419.052L5.47,8.552,3.48,6.572a.3.3,0,0,0-.423,0l-.4.4a.3.3,0,0,0,0,.423l2.673,2.665a.3.3,0,0,0,.449-.028l4.679-6.017A.3.3,0,0,0,10.408,3.593Z" transform="translate(-2.572 -3.191)" fill="#4c96ee"/>
    </g>
    <path id="Path_102981" data-name="Path 102981" d="M0,39.584V4.172A4.209,4.209,0,0,1,4.244,0H25.108A4.71,4.71,0,0,1,28.4,1.332l6.246,6.095a4.551,4.551,0,0,1,1.379,3.258v28.9a4.209,4.209,0,0,1-4.244,4.172H4.244A4.209,4.209,0,0,1,0,39.584Z" transform="translate(150.616 142.388)" fill="#fff" stroke="#da7b11" stroke-linecap="round" stroke-linejoin="round" stroke-width="3"/>
    <path id="Path_101390" data-name="Path 101390" d="M11.718,0A11.84,11.84,0,0,0,0,11.959v103a11.842,11.842,0,0,0,11.717,11.96H89.834a11.842,11.842,0,0,0,11.718-11.959V30.3a10.145,10.145,0,0,0-2.892-7.062L78.666,2.909A9.551,9.551,0,0,0,71.792,0Z" transform="translate(282.211 25.043)" fill="#fee" style="isolation: isolate"/>
    <path id="Rectangle_148676" data-name="Rectangle 148676" d="M0,0H17.579V12.167H0Z" transform="translate(159.417 158.183)" fill="#ddeaf9"/>
    <g id="Group_155647" data-name="Group 155647" transform="translate(159.417 157.611)">
      <path id="Rectangle_148640" data-name="Rectangle 148640" d="M2,0H16.42a2,2,0,0,1,2,2v9.311a2,2,0,0,1-2,2H2a2,2,0,0,1-2-2V2A2,2,0,0,1,2,0Z" fill="none" stroke="#2680eb" stroke-linecap="round" stroke-width="2"/>
      <path id="Path_101153" data-name="Path 101153" d="M1.187,2.379A1.19,1.19,0,1,0,0,1.188,1.19,1.19,0,0,0,1.187,2.379Z" transform="translate(13.259 2.669)" fill="#2680eb"/>
      <path id="Union_1" data-name="Union 1" d="M11.063,6.545H8.945l.008-.012L0,6.479,5.882.163a.482.482,0,0,1,.727,0l3.71,4.08.159-.267,1.757-2.023a.639.639,0,0,1,.944,0l4.058,4.589H12.412l.007.008Z" transform="translate(0.703 6)" fill="#2680eb"/>
      <path id="Rectangle_148641" data-name="Rectangle 148641" d="M1.5,0H16.922a1.465,1.465,0,0,1,1.5,1.43V11.881a1.465,1.465,0,0,1-1.5,1.43H1.5A1.465,1.465,0,0,1,0,11.881V1.43A1.465,1.465,0,0,1,1.5,0Z" fill="none"/>
    </g>
    <g id="Rectangle_215554" data-name="Rectangle 215554" transform="translate(69.581 18.553)" fill="#fff" stroke="#cacaca" stroke-width="4">
      <rect width="86.24" height="87.927" rx="20" stroke="none"/>
      <rect x="2" y="2" width="82.24" height="83.927" rx="18" fill="none"/>
    </g>
    <g id="Rectangle_215555" data-name="Rectangle 215555" transform="translate(26.462 118.615)" fill="#fff" stroke="#cacaca" stroke-width="4">
      <rect width="86.24" height="87.927" rx="20" stroke="none"/>
      <rect x="2" y="2" width="82.24" height="83.927" rx="18" fill="none"/>
    </g>
    <path id="Path_102982" data-name="Path 102982" d="M0,39.584V4.172A4.209,4.209,0,0,1,4.244,0H25.108A4.71,4.71,0,0,1,28.4,1.332l6.246,6.095a4.551,4.551,0,0,1,1.379,3.258v28.9a4.209,4.209,0,0,1-4.244,4.172H4.244A4.209,4.209,0,0,1,0,39.584Z" transform="translate(51.571 142.388)" fill="#fff" stroke="#da7b11" stroke-linecap="round" stroke-linejoin="round" stroke-width="3"/>
    <g id="Group_291831" data-name="Group 291831" transform="translate(60.618 156.805)">
      <g id="Group_291823" data-name="Group 291823" transform="translate(0 0)">
        <path id="Path_101405" data-name="Path 101405" d="M17.927,0H0" fill="none" stroke="#da7b11" stroke-linecap="round" stroke-width="3"/>
        <path id="Path_101406" data-name="Path 101406" d="M17.927,0H0" transform="translate(0 6.194)" fill="none" stroke="#da7b11" stroke-linecap="round" stroke-width="3"/>
        <path id="Path_102842" data-name="Path 102842" d="M17.927,0H0" transform="translate(0 12.098)" fill="none" stroke="#da7b11" stroke-linecap="round" stroke-width="3"/>
      </g>
      <g id="Group_291824" data-name="Group 291824" transform="translate(0 18.736)">
        <path id="Path_101405-2" data-name="Path 101405" d="M17.927,0H0" fill="none" stroke="#da7b11" stroke-linecap="round" stroke-width="3"/>
      </g>
    </g>
    <path id="Path_102983" data-name="Path 102983" d="M0,39.584V4.172A4.209,4.209,0,0,1,4.244,0H25.108A4.71,4.71,0,0,1,28.4,1.332l6.246,6.095a4.551,4.551,0,0,1,1.379,3.258v28.9a4.209,4.209,0,0,1-4.244,4.172H4.244A4.209,4.209,0,0,1,0,39.584Z" transform="translate(94.691 39.823)" fill="#fff" stroke="#da7b11" stroke-linecap="round" stroke-linejoin="round" stroke-width="3"/>
    <g id="Group_291834" data-name="Group 291834" transform="translate(264.43 45.879)">
      <path id="Path_102980" data-name="Path 102980" d="M0,115.021V12.123A12.23,12.23,0,0,1,12.331,0H72.957a13.687,13.687,0,0,1,9.555,3.872l18.15,17.71a13.225,13.225,0,0,1,4.007,9.466v83.973a12.23,12.23,0,0,1-12.331,12.123H12.331A12.23,12.23,0,0,1,0,115.021Z" fill="#fff" stroke="#da7b11" stroke-linecap="round" stroke-linejoin="round" stroke-width="4"/>
      <path id="Rectangle_148676-2" data-name="Rectangle 148676" d="M0,0H52.645V37.038H0Z" transform="translate(23.117 32.818)" fill="#ddeaf9"/>
      <g id="Group_155647-2" data-name="Group 155647" transform="translate(22.238 32.097)">
        <rect id="Rectangle_148640-2" data-name="Rectangle 148640" width="53.523" height="38.679" rx="2" fill="none" stroke="#2680eb" stroke-linecap="round" stroke-linejoin="round" stroke-width="4"/>
        <path id="Path_101153-2" data-name="Path 101153" d="M3.449,6.913A3.457,3.457,0,1,0,0,3.451,3.457,3.457,0,0,0,3.449,6.913Z" transform="translate(38.528 7.755)" fill="#2680eb" stroke="#2580ec" stroke-linecap="round" stroke-linejoin="round" stroke-width="4"/>
        <path id="Union_1-2" data-name="Union 1" d="M32.147,19.021H25.993l.022-.036L0,18.83,17.091.478a1.4,1.4,0,0,1,2.112,0L29.982,12.333l.463-.775L35.551,5.68a1.857,1.857,0,0,1,2.742,0L50.086,19.015H36.066l.021.023Z" transform="translate(1.719 19.341)" fill="#2680eb"/>
        <path id="Rectangle_148641-2" data-name="Rectangle 148641" d="M4.353,0H49.17a4.258,4.258,0,0,1,4.353,4.156V34.523a4.258,4.258,0,0,1-4.353,4.156H4.353A4.258,4.258,0,0,1,0,34.523V4.156A4.258,4.258,0,0,1,4.353,0Z" fill="none"/>
      </g>
    </g>
    <g id="done" transform="translate(336.919 133.169)">
      <g id="Ellipse_10671" data-name="Ellipse 10671" transform="translate(0 0)" fill="#fff" stroke="#fff" stroke-width="1">
        <ellipse cx="26.462" cy="27.375" rx="26.462" ry="27.375" stroke="none"/>
        <ellipse cx="26.462" cy="27.375" rx="25.962" ry="26.875" fill="none"/>
      </g>
      <g id="Group_159954" data-name="Group 159954" transform="translate(3.884 5.992)">
        <rect id="Canvas" width="43.297" height="43.297" transform="translate(0 0.945)" fill="#ff13dc" opacity="0"/>
        <path id="Path_102659" data-name="Path 102659" d="M21.859,1A20.859,20.859,0,1,0,42.719,21.859,20.859,20.859,0,0,0,21.859,1ZM35.765,12.838l-16.489,21.2a1.572,1.572,0,0,1-1.141.6h-.1a1.565,1.565,0,0,1-1.107-.458L6.783,24.021a1.564,1.564,0,0,1,0-2.212l0,0,1.729-1.727a1.564,1.564,0,0,1,2.212,0l0,0,6.959,6.974L31.395,9.439a1.564,1.564,0,0,1,2.2-.276l0,0,1.9,1.482a1.564,1.564,0,0,1,.275,2.19Z" transform="translate(0.946 -1)" fill="#2ac246"/>
      </g>
    </g>
    <g id="Group_291844" data-name="Group 291844" transform="translate(-1.19 3.172)">
      <g id="Group_291832" data-name="Group 291832" transform="translate(103.917 52.787)">
        <g id="Group_291824-2" data-name="Group 291824" transform="translate(0 0)">
          <path id="Path_101405-3" data-name="Path 101405" d="M11.689,0H0" fill="none" stroke="#da7b11" stroke-linecap="round" stroke-width="3"/>
        </g>
      </g>
      <g id="Group_291833" data-name="Group 291833" transform="translate(103.917 58.529)">
        <g id="Group_291824-3" data-name="Group 291824" transform="translate(0 0)">
          <path id="Path_101405-4" data-name="Path 101405" d="M19.949,0H0" fill="none" stroke="#da7b11" stroke-linecap="round" stroke-width="3"/>
        </g>
      </g>
      <g id="Group_291843" data-name="Group 291843" transform="translate(103.917 64.271)">
        <g id="Group_291824-4" data-name="Group 291824" transform="translate(0 0)">
          <path id="Path_101405-5" data-name="Path 101405" d="M16.937,0H0" fill="none" stroke="#da7b11" stroke-linecap="round" stroke-width="3"/>
        </g>
      </g>
    </g>
    <path id="Path_102989" data-name="Path 102989" d="M48.993.9l.151.187,11.1,15.13A2.166,2.166,0,0,1,60.67,17.7a2.275,2.275,0,0,1-1,2.011l-.211.136-16.7,9.685a2.918,2.918,0,0,1-3.738-.689,2.211,2.211,0,0,1,.567-3.176l.211-.135L51.928,18.49a40.8,40.8,0,0,0-26.392,1.146c-9.654,3.629-16.393,9.7-20.329,18.332A2.832,2.832,0,0,1,1.69,39.29,2.309,2.309,0,0,1,.2,36.176c4.473-9.8,12.254-16.819,23.228-20.944A46.832,46.832,0,0,1,51.77,13.45L44.614,3.694A2.234,2.234,0,0,1,45.408.386a2.965,2.965,0,0,1,3.416.346Z" transform="matrix(0.998, -0.07, 0.07, 0.998, 191.845, 96.11)" fill="#fff" stroke="#fff" stroke-width="8"/>
    <path id="Path_102984" data-name="Path 102984" d="M42.307.88l.131.182,9.582,14.756a2.313,2.313,0,0,1,.37,1.442,2.326,2.326,0,0,1-.866,1.961l-.182.132L36.922,28.8a2.332,2.332,0,0,1-2.738-3.769l.182-.132,10.476-6.864a31.451,31.451,0,0,0-22.79,1.118A31.461,31.461,0,0,0,4.5,37.028,2.333,2.333,0,1,1,.17,35.281,36.122,36.122,0,0,1,20.229,14.855,36.094,36.094,0,0,1,44.7,13.117L38.525,3.6A2.333,2.333,0,0,1,42.161.714Z" transform="translate(195.068 96.513)" fill="#2680eb"/>
    <g id="Group_291845" data-name="Group 291845" transform="translate(11.526 63.701)">
      <path id="Path_102974-2" data-name="Path 102974" d="M6.444,0H77.719c3.559,0,6.444,4.329,6.444,9.67V86.614c0,5.341-2.885,9.67-6.444,9.67H6.444C2.885,96.284,0,91.955,0,86.614V9.67C0,4.329,2.885,0,6.444,0Z" transform="translate(184.782 73.955) rotate(90)" fill="#fee"/>
      <path id="Path_102975-2" data-name="Path 102975" d="M6.444,0H77.719c3.559,0,6.444,4.333,6.444,9.677v77c0,5.345-2.885,9.677-6.444,9.677H6.444C2.885,96.357,0,92.024,0,86.68v-77C0,4.333,2.885,0,6.444,0Z" transform="translate(96.357 73.955) rotate(90)" fill="#fee"/>
      <path id="Path_102976-2" data-name="Path 102976" d="M6.863,0H82.779c3.79,0,6.863,4.317,6.863,9.641V86.357c0,5.325-3.073,9.641-6.863,9.641H6.863C3.073,96,0,91.682,0,86.357V9.641C0,4.317,3.073,0,6.863,0Z" transform="translate(136.64 0) rotate(90)" fill="#fee"/>
    </g>
    <g id="Rectangle_215562" data-name="Rectangle 215562" transform="translate(123.866 118.615)" fill="#ddeaf9" stroke="#2680eb" stroke-width="4">
      <rect width="86.24" height="87.927" rx="20" stroke="none"/>
      <rect x="2" y="2" width="82.24" height="83.927" rx="18" fill="none"/>
    </g>
    <rect id="Rectangle_215563" data-name="Rectangle 215563" width="14.608" height="13.971" rx="5" transform="translate(135.039 127.789)" fill="#fff"/>
    <g id="Group_291846" data-name="Group 291846" transform="translate(138.367 131.297)">
      <path id="Path_102845-2" data-name="Path 102845" d="M10.408,3.593l-.436-.339a.3.3,0,0,0-.419.052L5.47,8.552,3.48,6.572a.3.3,0,0,0-.423,0l-.4.4a.3.3,0,0,0,0,.423l2.673,2.665a.3.3,0,0,0,.449-.028l4.679-6.017A.3.3,0,0,0,10.408,3.593Z" transform="translate(-2.572 -3.191)" fill="#4c96ee"/>
    </g>
    <path id="Path_102990" data-name="Path 102990" d="M0,39.584V4.172A4.209,4.209,0,0,1,4.244,0H25.108A4.71,4.71,0,0,1,28.4,1.332l6.246,6.095a4.551,4.551,0,0,1,1.379,3.258v28.9a4.209,4.209,0,0,1-4.244,4.172H4.244A4.209,4.209,0,0,1,0,39.584Z" transform="translate(150.616 142.388)" fill="#fff" stroke="#da7b11" stroke-linecap="round" stroke-linejoin="round" stroke-width="3"/>
    <path id="Path_101390-2" data-name="Path 101390" d="M11.718,0A11.84,11.84,0,0,0,0,11.959v103a11.842,11.842,0,0,0,11.717,11.96H89.834a11.842,11.842,0,0,0,11.718-11.959V30.3a10.145,10.145,0,0,0-2.892-7.062L78.666,2.909A9.551,9.551,0,0,0,71.792,0Z" transform="translate(287.211 30.043)" fill="#fee" style="isolation: isolate"/>
    <path id="Rectangle_148676-3" data-name="Rectangle 148676" d="M0,0H17.579V12.167H0Z" transform="translate(159.417 156.496)" fill="#fbf4ee"/>
    <g id="Group_155647-3" data-name="Group 155647" transform="translate(159.417 155.924)">
      <path id="Rectangle_148640-3" data-name="Rectangle 148640" d="M2,0H16.42a2,2,0,0,1,2,2v9.311a2,2,0,0,1-2,2H2a2,2,0,0,1-2-2V2A2,2,0,0,1,2,0Z" fill="none" stroke="#da7b11" stroke-linecap="round" stroke-width="2"/>
      <path id="Path_101153-3" data-name="Path 101153" d="M1.187,2.379A1.19,1.19,0,1,0,0,1.188,1.19,1.19,0,0,0,1.187,2.379Z" transform="translate(13.259 2.669)" fill="#2680eb"/>
      <path id="Union_1-3" data-name="Union 1" d="M11.063,6.545H8.945l.008-.012L0,6.479,5.882.163a.482.482,0,0,1,.727,0l3.71,4.08.159-.267,1.757-2.023a.639.639,0,0,1,.944,0l4.058,4.589H12.412l.007.008Z" transform="translate(0.703 6)" fill="#2680eb"/>
      <path id="Rectangle_148641-3" data-name="Rectangle 148641" d="M1.5,0H16.922a1.465,1.465,0,0,1,1.5,1.43V11.881a1.465,1.465,0,0,1-1.5,1.43H1.5A1.465,1.465,0,0,1,0,11.881V1.43A1.465,1.465,0,0,1,1.5,0Z" fill="none"/>
    </g>
    <g id="Rectangle_215564" data-name="Rectangle 215564" transform="translate(69.581 18.553)" fill="#fff" stroke="#cacaca" stroke-width="4">
      <rect width="86.24" height="87.927" rx="20" stroke="none"/>
      <rect x="2" y="2" width="82.24" height="83.927" rx="18" fill="none"/>
    </g>
    <g id="Rectangle_215565" data-name="Rectangle 215565" transform="translate(26.462 118.615)" fill="#fff" stroke="#cacaca" stroke-width="4">
      <rect width="86.24" height="87.927" rx="20" stroke="none"/>
      <rect x="2" y="2" width="82.24" height="83.927" rx="18" fill="none"/>
    </g>
    <path id="Path_102991" data-name="Path 102991" d="M0,39.584V4.172A4.209,4.209,0,0,1,4.244,0H25.108A4.71,4.71,0,0,1,28.4,1.332l6.246,6.095a4.551,4.551,0,0,1,1.379,3.258v28.9a4.209,4.209,0,0,1-4.244,4.172H4.244A4.209,4.209,0,0,1,0,39.584Z" transform="translate(51.571 142.388)" fill="#fff" stroke="#da7b11" stroke-linecap="round" stroke-linejoin="round" stroke-width="3"/>
    <g id="Group_291847" data-name="Group 291847" transform="translate(60.618 156.805)">
      <g id="Group_291823-2" data-name="Group 291823" transform="translate(0 0)">
        <path id="Path_101405-6" data-name="Path 101405" d="M17.927,0H0" fill="none" stroke="#da7b11" stroke-linecap="round" stroke-width="3"/>
        <path id="Path_101406-2" data-name="Path 101406" d="M17.927,0H0" transform="translate(0 6.194)" fill="none" stroke="#da7b11" stroke-linecap="round" stroke-width="3"/>
        <path id="Path_102842-2" data-name="Path 102842" d="M17.927,0H0" transform="translate(0 12.098)" fill="none" stroke="#da7b11" stroke-linecap="round" stroke-width="3"/>
      </g>
      <g id="Group_291824-5" data-name="Group 291824" transform="translate(0 18.736)">
        <path id="Path_101405-7" data-name="Path 101405" d="M17.927,0H0" fill="none" stroke="#da7b11" stroke-linecap="round" stroke-width="3"/>
      </g>
    </g>
    <path id="Path_102992" data-name="Path 102992" d="M0,39.584V4.172A4.209,4.209,0,0,1,4.244,0H25.108A4.71,4.71,0,0,1,28.4,1.332l6.246,6.095a4.551,4.551,0,0,1,1.379,3.258v28.9a4.209,4.209,0,0,1-4.244,4.172H4.244A4.209,4.209,0,0,1,0,39.584Z" transform="translate(94.691 39.823)" fill="#fff" stroke="#da7b11" stroke-linecap="round" stroke-linejoin="round" stroke-width="3"/>
    <g id="Group_291848" data-name="Group 291848" transform="translate(264.43 45.879)">
      <path id="Path_102980-2" data-name="Path 102980" d="M0,115.021V12.123A12.23,12.23,0,0,1,12.331,0H72.957a13.687,13.687,0,0,1,9.555,3.872l18.15,17.71a13.225,13.225,0,0,1,4.007,9.466v83.973a12.23,12.23,0,0,1-12.331,12.123H12.331A12.23,12.23,0,0,1,0,115.021Z" fill="#fff" stroke="#da7b11" stroke-linecap="round" stroke-linejoin="round" stroke-width="4"/>
      <path id="Rectangle_148676-4" data-name="Rectangle 148676" d="M0,0H52.645V37.038H0Z" transform="translate(23.117 36.818)" fill="#fbf4ee"/>
      <g id="Group_155647-4" data-name="Group 155647" transform="translate(22.703 36.195)">
        <rect id="Rectangle_148640-4" data-name="Rectangle 148640" width="53.523" height="38.679" rx="2" fill="none" stroke="#da7b11" stroke-linecap="round" stroke-linejoin="round" stroke-width="4"/>
        <path id="Path_101153-4" data-name="Path 101153" d="M3.449,6.913A3.457,3.457,0,1,0,0,3.451,3.457,3.457,0,0,0,3.449,6.913Z" transform="translate(38.528 7.755)" fill="#2680eb" stroke="#2580ec" stroke-linecap="round" stroke-linejoin="round" stroke-width="4"/>
        <path id="Union_1-4" data-name="Union 1" d="M32.147,19.021H25.993l.022-.036L0,18.83,17.091.478a1.4,1.4,0,0,1,2.112,0L29.982,12.333l.463-.775L35.551,5.68a1.857,1.857,0,0,1,2.742,0L50.086,19.015H36.066l.021.023Z" transform="translate(1.719 18.341)" fill="#2680eb"/>
        <path id="Rectangle_148641-4" data-name="Rectangle 148641" d="M4.353,0H49.17a4.258,4.258,0,0,1,4.353,4.156V34.523a4.258,4.258,0,0,1-4.353,4.156H4.353A4.258,4.258,0,0,1,0,34.523V4.156A4.258,4.258,0,0,1,4.353,0Z" fill="none"/>
      </g>
    </g>
    <g id="done-2" data-name="done" transform="translate(336.919 133.169)">
      <g id="Ellipse_10671-2" data-name="Ellipse 10671" transform="translate(0 0)" fill="#fff" stroke="#fff" stroke-width="1">
        <ellipse cx="26.462" cy="27.375" rx="26.462" ry="27.375" stroke="none"/>
        <ellipse cx="26.462" cy="27.375" rx="25.962" ry="26.875" fill="none"/>
      </g>
      <g id="Group_159954-2" data-name="Group 159954" transform="translate(3.884 5.992)">
        <rect id="Canvas-2" data-name="Canvas" width="43.297" height="43.297" transform="translate(0 0.945)" fill="#ff13dc" opacity="0"/>
        <path id="Path_102659-2" data-name="Path 102659" d="M21.859,1A20.859,20.859,0,1,0,42.719,21.859,20.859,20.859,0,0,0,21.859,1ZM35.765,12.838l-16.489,21.2a1.572,1.572,0,0,1-1.141.6h-.1a1.565,1.565,0,0,1-1.107-.458L6.783,24.021a1.564,1.564,0,0,1,0-2.212l0,0,1.729-1.727a1.564,1.564,0,0,1,2.212,0l0,0,6.959,6.974L31.395,9.439a1.564,1.564,0,0,1,2.2-.276l0,0,1.9,1.482a1.564,1.564,0,0,1,.275,2.19Z" transform="translate(0.946 -1)" fill="#2ac246"/>
      </g>
    </g>
    <g id="Group_291849" data-name="Group 291849" transform="translate(-1.19 3.172)">
      <g id="Group_291832-2" data-name="Group 291832" transform="translate(103.917 52.787)">
        <g id="Group_291824-6" data-name="Group 291824" transform="translate(0 0)">
          <path id="Path_101405-8" data-name="Path 101405" d="M11.689,0H0" fill="none" stroke="#da7b11" stroke-linecap="round" stroke-width="3"/>
        </g>
      </g>
      <g id="Group_291833-2" data-name="Group 291833" transform="translate(103.917 58.529)">
        <g id="Group_291824-7" data-name="Group 291824" transform="translate(0 0)">
          <path id="Path_101405-9" data-name="Path 101405" d="M19.949,0H0" fill="none" stroke="#da7b11" stroke-linecap="round" stroke-width="3"/>
        </g>
      </g>
      <g id="Group_291843-2" data-name="Group 291843" transform="translate(103.917 64.271)">
        <g id="Group_291824-8" data-name="Group 291824" transform="translate(0 0)">
          <path id="Path_101405-10" data-name="Path 101405" d="M16.937,0H0" fill="none" stroke="#da7b11" stroke-linecap="round" stroke-width="3"/>
        </g>
      </g>
    </g>
    <path id="Path_102993" data-name="Path 102993" d="M48.993.9l.151.187,11.1,15.13A2.166,2.166,0,0,1,60.67,17.7a2.275,2.275,0,0,1-1,2.011l-.211.136-16.7,9.685a2.918,2.918,0,0,1-3.738-.689,2.211,2.211,0,0,1,.567-3.176l.211-.135L51.928,18.49a40.8,40.8,0,0,0-26.392,1.146c-9.654,3.629-16.393,9.7-20.329,18.332A2.832,2.832,0,0,1,1.69,39.29,2.309,2.309,0,0,1,.2,36.176c4.473-9.8,12.254-16.819,23.228-20.944A46.832,46.832,0,0,1,51.77,13.45L44.614,3.694A2.234,2.234,0,0,1,45.408.386a2.965,2.965,0,0,1,3.416.346Z" transform="translate(195.45 94.513)" fill="#fff" stroke="#fff" stroke-width="8"/>
    <path id="Path_102994" data-name="Path 102994" d="M42.307.88l.131.182,9.582,14.756a2.313,2.313,0,0,1,.37,1.442,2.326,2.326,0,0,1-.866,1.961l-.182.132L36.922,28.8a2.332,2.332,0,0,1-2.738-3.769l.182-.132,10.476-6.864a31.451,31.451,0,0,0-22.79,1.118A31.461,31.461,0,0,0,4.5,37.028,2.333,2.333,0,1,1,.17,35.281,36.122,36.122,0,0,1,20.229,14.855,36.094,36.094,0,0,1,44.7,13.117L38.525,3.6A2.333,2.333,0,0,1,42.161.714Z" transform="translate(195.068 96.513)" fill="#2680eb"/>
    <path id="Path_102996" data-name="Path 102996" d="M53.105,0H0" transform="translate(287.082 130.887)" fill="none" stroke="#da7b11" stroke-linecap="round" stroke-width="4"/>
    <path id="Path_102995" data-name="Path 102995" d="M17.927,0H0" transform="translate(159.91 174.46)" fill="none" stroke="#da7b11" stroke-linecap="round" stroke-width="3"/>
    <g id="Group_291861" data-name="Group 291861" transform="translate(11.526 61.701)">
      <path id="Path_102974-3" data-name="Path 102974" d="M6.444,0H77.719c3.559,0,6.444,4.329,6.444,9.67V86.614c0,5.341-2.885,9.67-6.444,9.67H6.444C2.885,96.284,0,91.955,0,86.614V9.67C0,4.329,2.885,0,6.444,0Z" transform="translate(184.782 73.955) rotate(90)" fill="#fee"/>
      <path id="Path_102975-3" data-name="Path 102975" d="M6.444,0H77.719c3.559,0,6.444,4.333,6.444,9.677v77c0,5.345-2.885,9.677-6.444,9.677H6.444C2.885,96.357,0,92.024,0,86.68v-77C0,4.333,2.885,0,6.444,0Z" transform="translate(96.357 73.955) rotate(90)" fill="#fee"/>
      <path id="Path_102976-3" data-name="Path 102976" d="M6.863,0H82.779c3.79,0,6.863,4.317,6.863,9.641V86.357c0,5.325-3.073,9.641-6.863,9.641H6.863C3.073,96,0,91.682,0,86.357V9.641C0,4.317,3.073,0,6.863,0Z" transform="translate(136.64 0) rotate(90)" fill="#fee"/>
    </g>
    <g id="Rectangle_215574" data-name="Rectangle 215574" transform="translate(123.866 118.615)" fill="#ddeaf9" stroke="#2680eb" stroke-width="4">
      <rect width="86.24" height="87.927" rx="20" stroke="none"/>
      <rect x="2" y="2" width="82.24" height="83.927" rx="18" fill="none"/>
    </g>
    <rect id="Rectangle_215575" data-name="Rectangle 215575" width="14.608" height="13.971" rx="6.985" transform="translate(132.039 126.789)" fill="#fff"/>
    <g id="Group_291862" data-name="Group 291862" transform="translate(135.367 130.297)">
      <path id="Path_102845-3" data-name="Path 102845" d="M10.408,3.593l-.436-.339a.3.3,0,0,0-.419.052L5.47,8.552,3.48,6.572a.3.3,0,0,0-.423,0l-.4.4a.3.3,0,0,0,0,.423l2.673,2.665a.3.3,0,0,0,.449-.028l4.679-6.017A.3.3,0,0,0,10.408,3.593Z" transform="translate(-2.572 -3.191)" fill="#4c96ee"/>
    </g>
    <path id="Path_103009" data-name="Path 103009" d="M0,39.584V4.172A4.209,4.209,0,0,1,4.244,0H25.108A4.71,4.71,0,0,1,28.4,1.332l6.246,6.095a4.551,4.551,0,0,1,1.379,3.258v28.9a4.209,4.209,0,0,1-4.244,4.172H4.244A4.209,4.209,0,0,1,0,39.584Z" transform="translate(150.616 142.388)" fill="#fff" stroke="#da7b11" stroke-linecap="round" stroke-linejoin="round" stroke-width="3"/>
    <path id="Path_101390-3" data-name="Path 101390" d="M11.718,0A11.84,11.84,0,0,0,0,11.959v103a11.842,11.842,0,0,0,11.717,11.96H89.834a11.842,11.842,0,0,0,11.718-11.959V30.3a10.145,10.145,0,0,0-2.892-7.062L78.666,2.909A9.551,9.551,0,0,0,71.792,0Z" transform="translate(282.211 25.043)" fill="#fee" style="isolation: isolate"/>
    <path id="Rectangle_148676-5" data-name="Rectangle 148676" d="M0,0H17.579V12.167H0Z" transform="translate(159.417 158.183)" fill="#ddeaf9"/>
    <g id="Group_155647-5" data-name="Group 155647" transform="translate(159.417 157.611)">
      <path id="Rectangle_148640-5" data-name="Rectangle 148640" d="M2,0H16.42a2,2,0,0,1,2,2v9.311a2,2,0,0,1-2,2H2a2,2,0,0,1-2-2V2A2,2,0,0,1,2,0Z" fill="none" stroke="#2680eb" stroke-linecap="round" stroke-width="2"/>
      <path id="Path_101153-5" data-name="Path 101153" d="M1.187,2.379A1.19,1.19,0,1,0,0,1.188,1.19,1.19,0,0,0,1.187,2.379Z" transform="translate(13.259 2.669)" fill="#2680eb"/>
      <path id="Union_1-5" data-name="Union 1" d="M11.063,6.545H8.945l.008-.012L0,6.479,5.882.163a.482.482,0,0,1,.727,0l3.71,4.08.159-.267,1.757-2.023a.639.639,0,0,1,.944,0l4.058,4.589H12.412l.007.008Z" transform="translate(0.703 6)" fill="#2680eb"/>
      <path id="Rectangle_148641-5" data-name="Rectangle 148641" d="M1.5,0H16.922a1.465,1.465,0,0,1,1.5,1.43V11.881a1.465,1.465,0,0,1-1.5,1.43H1.5A1.465,1.465,0,0,1,0,11.881V1.43A1.465,1.465,0,0,1,1.5,0Z" fill="none"/>
    </g>
    <g id="Rectangle_215576" data-name="Rectangle 215576" transform="translate(69.581 18.553)" fill="#fff" stroke="#cacaca" stroke-width="4">
      <rect width="86.24" height="87.927" rx="20" stroke="none"/>
      <rect x="2" y="2" width="82.24" height="83.927" rx="18" fill="none"/>
    </g>
    <g id="Rectangle_215577" data-name="Rectangle 215577" transform="translate(26.462 118.615)" fill="#fff" stroke="#cacaca" stroke-width="4">
      <rect width="86.24" height="87.927" rx="20" stroke="none"/>
      <rect x="2" y="2" width="82.24" height="83.927" rx="18" fill="none"/>
    </g>
    <path id="Path_103010" data-name="Path 103010" d="M0,39.584V4.172A4.209,4.209,0,0,1,4.244,0H25.108A4.71,4.71,0,0,1,28.4,1.332l6.246,6.095a4.551,4.551,0,0,1,1.379,3.258v28.9a4.209,4.209,0,0,1-4.244,4.172H4.244A4.209,4.209,0,0,1,0,39.584Z" transform="translate(51.571 142.388)" fill="#fff" stroke="#da7b11" stroke-linecap="round" stroke-linejoin="round" stroke-width="3"/>
    <g id="Group_291863" data-name="Group 291863" transform="translate(60.618 156.805)">
      <g id="Group_291823-3" data-name="Group 291823" transform="translate(0 0)">
        <path id="Path_101405-11" data-name="Path 101405" d="M17.927,0H0" fill="none" stroke="#da7b11" stroke-linecap="round" stroke-width="3"/>
        <path id="Path_101406-3" data-name="Path 101406" d="M17.927,0H0" transform="translate(0 6.194)" fill="none" stroke="#da7b11" stroke-linecap="round" stroke-width="3"/>
        <path id="Path_102842-3" data-name="Path 102842" d="M17.927,0H0" transform="translate(0 12.098)" fill="none" stroke="#da7b11" stroke-linecap="round" stroke-width="3"/>
      </g>
      <g id="Group_291824-9" data-name="Group 291824" transform="translate(0 18.736)">
        <path id="Path_101405-12" data-name="Path 101405" d="M17.927,0H0" fill="none" stroke="#da7b11" stroke-linecap="round" stroke-width="3"/>
      </g>
    </g>
    <path id="Path_103011" data-name="Path 103011" d="M0,39.584V4.172A4.209,4.209,0,0,1,4.244,0H25.108A4.71,4.71,0,0,1,28.4,1.332l6.246,6.095a4.551,4.551,0,0,1,1.379,3.258v28.9a4.209,4.209,0,0,1-4.244,4.172H4.244A4.209,4.209,0,0,1,0,39.584Z" transform="translate(94.691 39.823)" fill="#fff" stroke="#da7b11" stroke-linecap="round" stroke-linejoin="round" stroke-width="3"/>
    <g id="Group_291864" data-name="Group 291864" transform="translate(264.43 45.879)">
      <path id="Path_102980-3" data-name="Path 102980" d="M0,115.021V12.123A12.23,12.23,0,0,1,12.331,0H72.957a13.687,13.687,0,0,1,9.555,3.872l18.15,17.71a13.225,13.225,0,0,1,4.007,9.466v83.973a12.23,12.23,0,0,1-12.331,12.123H12.331A12.23,12.23,0,0,1,0,115.021Z" fill="#fff" stroke="#da7b11" stroke-linecap="round" stroke-linejoin="round" stroke-width="4"/>
      <path id="Rectangle_148676-6" data-name="Rectangle 148676" d="M0,0H52.645V37.038H0Z" transform="translate(23.117 32.818)" fill="#ddeaf9"/>
      <g id="Group_155647-6" data-name="Group 155647" transform="translate(22.238 32.097)">
        <rect id="Rectangle_148640-6" data-name="Rectangle 148640" width="53.523" height="38.679" rx="2" fill="none" stroke="#2680eb" stroke-linecap="round" stroke-linejoin="round" stroke-width="4"/>
        <path id="Path_101153-6" data-name="Path 101153" d="M3.449,6.913A3.457,3.457,0,1,0,0,3.451,3.457,3.457,0,0,0,3.449,6.913Z" transform="translate(38.528 7.755)" fill="#2680eb" stroke="#2580ec" stroke-linecap="round" stroke-linejoin="round" stroke-width="4"/>
        <path id="Union_1-6" data-name="Union 1" d="M32.147,19.021H25.993l.022-.036L0,18.83,17.091.478a1.4,1.4,0,0,1,2.112,0L29.982,12.333l.463-.775L35.551,5.68a1.857,1.857,0,0,1,2.742,0L50.086,19.015H36.066l.021.023Z" transform="translate(1.719 19.341)" fill="#2680eb"/>
        <path id="Rectangle_148641-6" data-name="Rectangle 148641" d="M4.353,0H49.17a4.258,4.258,0,0,1,4.353,4.156V34.523a4.258,4.258,0,0,1-4.353,4.156H4.353A4.258,4.258,0,0,1,0,34.523V4.156A4.258,4.258,0,0,1,4.353,0Z" fill="none"/>
      </g>
    </g>
    <g id="done-3" data-name="done" transform="translate(336.919 133.169)">
      <g id="Ellipse_10671-3" data-name="Ellipse 10671" transform="translate(0 0)" fill="#fff" stroke="#fff" stroke-width="1">
        <ellipse cx="26.462" cy="27.375" rx="26.462" ry="27.375" stroke="none"/>
        <ellipse cx="26.462" cy="27.375" rx="25.962" ry="26.875" fill="none"/>
      </g>
      <g id="Group_159954-3" data-name="Group 159954" transform="translate(3.884 5.992)">
        <rect id="Canvas-3" data-name="Canvas" width="43.297" height="43.297" transform="translate(0 0.945)" fill="#ff13dc" opacity="0"/>
        <path id="Path_102659-3" data-name="Path 102659" d="M21.859,1A20.859,20.859,0,1,0,42.719,21.859,20.859,20.859,0,0,0,21.859,1ZM35.765,12.838l-16.489,21.2a1.572,1.572,0,0,1-1.141.6h-.1a1.565,1.565,0,0,1-1.107-.458L6.783,24.021a1.564,1.564,0,0,1,0-2.212l0,0,1.729-1.727a1.564,1.564,0,0,1,2.212,0l0,0,6.959,6.974L31.395,9.439a1.564,1.564,0,0,1,2.2-.276l0,0,1.9,1.482a1.564,1.564,0,0,1,.275,2.19Z" transform="translate(0.946 -1)" fill="#2ac246"/>
      </g>
    </g>
    <g id="Group_291865" data-name="Group 291865" transform="translate(-1.19 3.172)">
      <g id="Group_291832-3" data-name="Group 291832" transform="translate(103.917 52.787)">
        <g id="Group_291824-10" data-name="Group 291824" transform="translate(0 0)">
          <path id="Path_101405-13" data-name="Path 101405" d="M11.689,0H0" fill="none" stroke="#da7b11" stroke-linecap="round" stroke-width="3"/>
        </g>
      </g>
      <g id="Group_291833-3" data-name="Group 291833" transform="translate(103.917 58.529)">
        <g id="Group_291824-11" data-name="Group 291824" transform="translate(0 0)">
          <path id="Path_101405-14" data-name="Path 101405" d="M19.949,0H0" fill="none" stroke="#da7b11" stroke-linecap="round" stroke-width="3"/>
        </g>
      </g>
      <g id="Group_291843-3" data-name="Group 291843" transform="translate(103.917 64.271)">
        <g id="Group_291824-12" data-name="Group 291824" transform="translate(0 0)">
          <path id="Path_101405-15" data-name="Path 101405" d="M16.937,0H0" fill="none" stroke="#da7b11" stroke-linecap="round" stroke-width="3"/>
        </g>
      </g>
    </g>
    <path id="Path_103012" data-name="Path 103012" d="M48.993.9l.151.187,11.1,15.13A2.166,2.166,0,0,1,60.67,17.7a2.275,2.275,0,0,1-1,2.011l-.211.136-16.7,9.685a2.918,2.918,0,0,1-3.738-.689,2.211,2.211,0,0,1,.567-3.176l.211-.135L51.928,18.49a40.8,40.8,0,0,0-26.392,1.146c-9.654,3.629-16.393,9.7-20.329,18.332A2.832,2.832,0,0,1,1.69,39.29,2.309,2.309,0,0,1,.2,36.176c4.473-9.8,12.254-16.819,23.228-20.944A46.832,46.832,0,0,1,51.77,13.45L44.614,3.694A2.234,2.234,0,0,1,45.408.386a2.965,2.965,0,0,1,3.416.346Z" transform="matrix(0.998, -0.07, 0.07, 0.998, 191.845, 96.11)" fill="#fff" stroke="#fff" stroke-width="8"/>
    <path id="Path_103013" data-name="Path 103013" d="M42.307.88l.131.182,9.582,14.756a2.313,2.313,0,0,1,.37,1.442,2.326,2.326,0,0,1-.866,1.961l-.182.132L36.922,28.8a2.332,2.332,0,0,1-2.738-3.769l.182-.132,10.476-6.864a31.451,31.451,0,0,0-22.79,1.118A31.461,31.461,0,0,0,4.5,37.028,2.333,2.333,0,1,1,.17,35.281,36.122,36.122,0,0,1,20.229,14.855,36.094,36.094,0,0,1,44.7,13.117L38.525,3.6A2.333,2.333,0,0,1,42.161.714Z" transform="translate(195.068 96.513)" fill="#2680eb"/>
    <g id="Group_291866" data-name="Group 291866" transform="translate(11.526 63.701)">
      <path id="Path_102974-4" data-name="Path 102974" d="M6.444,0H77.719c3.559,0,6.444,4.329,6.444,9.67V86.614c0,5.341-2.885,9.67-6.444,9.67H6.444C2.885,96.284,0,91.955,0,86.614V9.67C0,4.329,2.885,0,6.444,0Z" transform="translate(184.782 73.955) rotate(90)" fill="#fee"/>
      <path id="Path_102975-4" data-name="Path 102975" d="M6.444,0H77.719c3.559,0,6.444,4.333,6.444,9.677v77c0,5.345-2.885,9.677-6.444,9.677H6.444C2.885,96.357,0,92.024,0,86.68v-77C0,4.333,2.885,0,6.444,0Z" transform="translate(96.357 73.955) rotate(90)" fill="#fee"/>
      <path id="Path_102976-4" data-name="Path 102976" d="M6.863,0H82.779c3.79,0,6.863,4.317,6.863,9.641V86.357c0,5.325-3.073,9.641-6.863,9.641H6.863C3.073,96,0,91.682,0,86.357V9.641C0,4.317,3.073,0,6.863,0Z" transform="translate(136.64 0) rotate(90)" fill="#fee"/>
    </g>
    <g id="Rectangle_215578" data-name="Rectangle 215578" transform="translate(123.866 118.615)" fill="#ddeaf9" stroke="#2680eb" stroke-width="4">
      <rect width="86.24" height="87.927" rx="20" stroke="none"/>
      <rect x="2" y="2" width="82.24" height="83.927" rx="18" fill="none"/>
    </g>
    <rect id="Rectangle_215579" data-name="Rectangle 215579" width="14.608" height="13.971" rx="5" transform="translate(135.039 127.789)" fill="#fff"/>
    <g id="Group_291867" data-name="Group 291867" transform="translate(138.367 131.297)">
      <path id="Path_102845-4" data-name="Path 102845" d="M10.408,3.593l-.436-.339a.3.3,0,0,0-.419.052L5.47,8.552,3.48,6.572a.3.3,0,0,0-.423,0l-.4.4a.3.3,0,0,0,0,.423l2.673,2.665a.3.3,0,0,0,.449-.028l4.679-6.017A.3.3,0,0,0,10.408,3.593Z" transform="translate(-2.572 -3.191)" fill="#4c96ee"/>
    </g>
    <path id="Path_103014" data-name="Path 103014" d="M0,39.584V4.172A4.209,4.209,0,0,1,4.244,0H25.108A4.71,4.71,0,0,1,28.4,1.332l6.246,6.095a4.551,4.551,0,0,1,1.379,3.258v28.9a4.209,4.209,0,0,1-4.244,4.172H4.244A4.209,4.209,0,0,1,0,39.584Z" transform="translate(150.616 142.388)" fill="#fff" stroke="#da7b11" stroke-linecap="round" stroke-linejoin="round" stroke-width="3"/>
    <path id="Path_101390-4" data-name="Path 101390" d="M11.718,0A11.84,11.84,0,0,0,0,11.959v103a11.842,11.842,0,0,0,11.717,11.96H89.834a11.842,11.842,0,0,0,11.718-11.959V30.3a10.145,10.145,0,0,0-2.892-7.062L78.666,2.909A9.551,9.551,0,0,0,71.792,0Z" transform="translate(287.211 30.043)" fill="#fee" style="isolation: isolate"/>
    <path id="Rectangle_148676-7" data-name="Rectangle 148676" d="M0,0H17.579V12.167H0Z" transform="translate(159.417 156.496)" fill="#fbf4ee"/>
    <g id="Group_155647-7" data-name="Group 155647" transform="translate(159.417 155.924)">
      <path id="Rectangle_148640-7" data-name="Rectangle 148640" d="M2,0H16.42a2,2,0,0,1,2,2v9.311a2,2,0,0,1-2,2H2a2,2,0,0,1-2-2V2A2,2,0,0,1,2,0Z" fill="none" stroke="#da7b11" stroke-linecap="round" stroke-width="2"/>
      <path id="Path_101153-7" data-name="Path 101153" d="M1.187,2.379A1.19,1.19,0,1,0,0,1.188,1.19,1.19,0,0,0,1.187,2.379Z" transform="translate(13.259 2.669)" fill="#2680eb"/>
      <path id="Union_1-7" data-name="Union 1" d="M11.063,6.545H8.945l.008-.012L0,6.479,5.882.163a.482.482,0,0,1,.727,0l3.71,4.08.159-.267,1.757-2.023a.639.639,0,0,1,.944,0l4.058,4.589H12.412l.007.008Z" transform="translate(0.703 6)" fill="#2680eb"/>
      <path id="Rectangle_148641-7" data-name="Rectangle 148641" d="M1.5,0H16.922a1.465,1.465,0,0,1,1.5,1.43V11.881a1.465,1.465,0,0,1-1.5,1.43H1.5A1.465,1.465,0,0,1,0,11.881V1.43A1.465,1.465,0,0,1,1.5,0Z" fill="none"/>
    </g>
    <g id="Rectangle_215580" data-name="Rectangle 215580" transform="translate(69.581 18.553)" fill="#fff" stroke="#cacaca" stroke-width="4">
      <rect width="86.24" height="87.927" rx="20" stroke="none"/>
      <rect x="2" y="2" width="82.24" height="83.927" rx="18" fill="none"/>
    </g>
    <g id="Rectangle_215581" data-name="Rectangle 215581" transform="translate(26.462 118.615)" fill="#fff" stroke="#cacaca" stroke-width="4">
      <rect width="86.24" height="87.927" rx="20" stroke="none"/>
      <rect x="2" y="2" width="82.24" height="83.927" rx="18" fill="none"/>
    </g>
    <path id="Path_103015" data-name="Path 103015" d="M0,39.584V4.172A4.209,4.209,0,0,1,4.244,0H25.108A4.71,4.71,0,0,1,28.4,1.332l6.246,6.095a4.551,4.551,0,0,1,1.379,3.258v28.9a4.209,4.209,0,0,1-4.244,4.172H4.244A4.209,4.209,0,0,1,0,39.584Z" transform="translate(51.571 142.388)" fill="#fff" stroke="#da7b11" stroke-linecap="round" stroke-linejoin="round" stroke-width="3"/>
    <g id="Group_291868" data-name="Group 291868" transform="translate(60.618 156.805)">
      <g id="Group_291823-4" data-name="Group 291823" transform="translate(0 0)">
        <path id="Path_101405-16" data-name="Path 101405" d="M17.927,0H0" fill="none" stroke="#da7b11" stroke-linecap="round" stroke-width="3"/>
        <path id="Path_101406-4" data-name="Path 101406" d="M17.927,0H0" transform="translate(0 6.194)" fill="none" stroke="#da7b11" stroke-linecap="round" stroke-width="3"/>
        <path id="Path_102842-4" data-name="Path 102842" d="M17.927,0H0" transform="translate(0 12.098)" fill="none" stroke="#da7b11" stroke-linecap="round" stroke-width="3"/>
      </g>
      <g id="Group_291824-13" data-name="Group 291824" transform="translate(0 18.736)">
        <path id="Path_101405-17" data-name="Path 101405" d="M17.927,0H0" fill="none" stroke="#da7b11" stroke-linecap="round" stroke-width="3"/>
      </g>
    </g>
    <path id="Path_103016" data-name="Path 103016" d="M0,39.584V4.172A4.209,4.209,0,0,1,4.244,0H25.108A4.71,4.71,0,0,1,28.4,1.332l6.246,6.095a4.551,4.551,0,0,1,1.379,3.258v28.9a4.209,4.209,0,0,1-4.244,4.172H4.244A4.209,4.209,0,0,1,0,39.584Z" transform="translate(94.691 39.823)" fill="#fff" stroke="#da7b11" stroke-linecap="round" stroke-linejoin="round" stroke-width="3"/>
    <g id="Group_291869" data-name="Group 291869" transform="translate(264.43 45.879)">
      <path id="Path_102980-4" data-name="Path 102980" d="M0,115.021V12.123A12.23,12.23,0,0,1,12.331,0H72.957a13.687,13.687,0,0,1,9.555,3.872l18.15,17.71a13.225,13.225,0,0,1,4.007,9.466v83.973a12.23,12.23,0,0,1-12.331,12.123H12.331A12.23,12.23,0,0,1,0,115.021Z" fill="#fff" stroke="#da7b11" stroke-linecap="round" stroke-linejoin="round" stroke-width="4"/>
      <path id="Rectangle_148676-8" data-name="Rectangle 148676" d="M0,0H52.645V37.038H0Z" transform="translate(23.117 36.818)" fill="#fbf4ee"/>
      <g id="Group_155647-8" data-name="Group 155647" transform="translate(22.703 36.195)">
        <rect id="Rectangle_148640-8" data-name="Rectangle 148640" width="53.523" height="38.679" rx="2" fill="none" stroke="#da7b11" stroke-linecap="round" stroke-linejoin="round" stroke-width="4"/>
        <path id="Path_101153-8" data-name="Path 101153" d="M3.449,6.913A3.457,3.457,0,1,0,0,3.451,3.457,3.457,0,0,0,3.449,6.913Z" transform="translate(38.528 7.755)" fill="#2680eb" stroke="#2580ec" stroke-linecap="round" stroke-linejoin="round" stroke-width="4"/>
        <path id="Union_1-8" data-name="Union 1" d="M32.147,19.021H25.993l.022-.036L0,18.83,17.091.478a1.4,1.4,0,0,1,2.112,0L29.982,12.333l.463-.775L35.551,5.68a1.857,1.857,0,0,1,2.742,0L50.086,19.015H36.066l.021.023Z" transform="translate(1.719 18.341)" fill="#2680eb"/>
        <path id="Rectangle_148641-8" data-name="Rectangle 148641" d="M4.353,0H49.17a4.258,4.258,0,0,1,4.353,4.156V34.523a4.258,4.258,0,0,1-4.353,4.156H4.353A4.258,4.258,0,0,1,0,34.523V4.156A4.258,4.258,0,0,1,4.353,0Z" fill="none"/>
      </g>
    </g>
    <g id="done-4" data-name="done" transform="translate(336.919 133.169)">
      <g id="Ellipse_10671-4" data-name="Ellipse 10671" transform="translate(0 0)" fill="#fff" stroke="#fff" stroke-width="1">
        <ellipse cx="26.462" cy="27.375" rx="26.462" ry="27.375" stroke="none"/>
        <ellipse cx="26.462" cy="27.375" rx="25.962" ry="26.875" fill="none"/>
      </g>
      <g id="Group_159954-4" data-name="Group 159954" transform="translate(3.884 5.992)">
        <rect id="Canvas-4" data-name="Canvas" width="43.297" height="43.297" transform="translate(0 0.945)" fill="#ff13dc" opacity="0"/>
        <path id="Path_102659-4" data-name="Path 102659" d="M21.859,1A20.859,20.859,0,1,0,42.719,21.859,20.859,20.859,0,0,0,21.859,1ZM35.765,12.838l-16.489,21.2a1.572,1.572,0,0,1-1.141.6h-.1a1.565,1.565,0,0,1-1.107-.458L6.783,24.021a1.564,1.564,0,0,1,0-2.212l0,0,1.729-1.727a1.564,1.564,0,0,1,2.212,0l0,0,6.959,6.974L31.395,9.439a1.564,1.564,0,0,1,2.2-.276l0,0,1.9,1.482a1.564,1.564,0,0,1,.275,2.19Z" transform="translate(0.946 -1)" fill="#2ac246"/>
      </g>
    </g>
    <g id="Group_291870" data-name="Group 291870" transform="translate(-1.19 3.172)">
      <g id="Group_291832-4" data-name="Group 291832" transform="translate(103.917 52.787)">
        <g id="Group_291824-14" data-name="Group 291824" transform="translate(0 0)">
          <path id="Path_101405-18" data-name="Path 101405" d="M11.689,0H0" fill="none" stroke="#da7b11" stroke-linecap="round" stroke-width="3"/>
        </g>
      </g>
      <g id="Group_291833-4" data-name="Group 291833" transform="translate(103.917 58.529)">
        <g id="Group_291824-15" data-name="Group 291824" transform="translate(0 0)">
          <path id="Path_101405-19" data-name="Path 101405" d="M19.949,0H0" fill="none" stroke="#da7b11" stroke-linecap="round" stroke-width="3"/>
        </g>
      </g>
      <g id="Group_291843-4" data-name="Group 291843" transform="translate(103.917 64.271)">
        <g id="Group_291824-16" data-name="Group 291824" transform="translate(0 0)">
          <path id="Path_101405-20" data-name="Path 101405" d="M16.937,0H0" fill="none" stroke="#da7b11" stroke-linecap="round" stroke-width="3"/>
        </g>
      </g>
    </g>
    <path id="Path_103017" data-name="Path 103017" d="M48.993.9l.151.187,11.1,15.13A2.166,2.166,0,0,1,60.67,17.7a2.275,2.275,0,0,1-1,2.011l-.211.136-16.7,9.685a2.918,2.918,0,0,1-3.738-.689,2.211,2.211,0,0,1,.567-3.176l.211-.135L51.928,18.49a40.8,40.8,0,0,0-26.392,1.146c-9.654,3.629-16.393,9.7-20.329,18.332A2.832,2.832,0,0,1,1.69,39.29,2.309,2.309,0,0,1,.2,36.176c4.473-9.8,12.254-16.819,23.228-20.944A46.832,46.832,0,0,1,51.77,13.45L44.614,3.694A2.234,2.234,0,0,1,45.408.386a2.965,2.965,0,0,1,3.416.346Z" transform="translate(195.45 94.513)" fill="#fff" stroke="#fff" stroke-width="8"/>
    <path id="Path_103018" data-name="Path 103018" d="M42.307.88l.131.182,9.582,14.756a2.313,2.313,0,0,1,.37,1.442,2.326,2.326,0,0,1-.866,1.961l-.182.132L36.922,28.8a2.332,2.332,0,0,1-2.738-3.769l.182-.132,10.476-6.864a31.451,31.451,0,0,0-22.79,1.118A31.461,31.461,0,0,0,4.5,37.028,2.333,2.333,0,1,1,.17,35.281,36.122,36.122,0,0,1,20.229,14.855,36.094,36.094,0,0,1,44.7,13.117L38.525,3.6A2.333,2.333,0,0,1,42.161.714Z" transform="translate(195.068 96.513)" fill="#2680eb"/>
    <path id="Path_103019" data-name="Path 103019" d="M53.105,0H0" transform="translate(287.082 130.887)" fill="none" stroke="#da7b11" stroke-linecap="round" stroke-width="4"/>
    <path id="Path_103020" data-name="Path 103020" d="M17.927,0H0" transform="translate(159.91 174.46)" fill="none" stroke="#da7b11" stroke-linecap="round" stroke-width="3"/>
  </g>
</svg>
