<svg xmlns="http://www.w3.org/2000/svg" xmlns:xlink="http://www.w3.org/1999/xlink" width="400" height="240" viewBox="0 0 400 240">
  <defs>
    <clipPath id="clip-s_illu_split-PDF-files_452x320.svg">
      <rect width="400" height="240"/>
    </clipPath>
  </defs>
  <g id="s_illu_split-PDF-files_452x320.svg" clip-path="url(#clip-s_illu_split-PDF-files_452x320.svg)">
    <rect width="400" height="240" fill="#fff"/>
    <path id="Path_102849" data-name="Path 102849" d="M0,0V161.373" transform="translate(242.898 47.135)" fill="none" stroke="#1473e6" stroke-linecap="round" stroke-width="4" stroke-dasharray="5 10" opacity="0.24"/>
    <g id="Rectangle_154217" data-name="Rectangle 154217" transform="translate(264.765 59.939)" fill="#fff" stroke="#d1cfcf" stroke-linecap="square" stroke-width="4">
      <rect width="106.33" height="111.428" rx="14" stroke="none"/>
      <rect x="2" y="2" width="102.33" height="107.428" rx="12" fill="none"/>
    </g>
    <g id="Rectangle_149938" data-name="Rectangle 149938" transform="translate(41.936 59.939)" fill="#fff" stroke="#d1cfcf" stroke-linecap="square" stroke-width="4">
      <rect width="177.702" height="111.428" rx="14" stroke="none"/>
      <rect x="2" y="2" width="173.702" height="107.428" rx="12" fill="none"/>
    </g>
    <g id="Group_160836" data-name="Group 160836" transform="translate(65.14 82.912)">
      <g id="Group_160756" data-name="Group 160756" transform="translate(0 0)">
        <path id="Path_101157" data-name="Path 101157" d="M15.6-91.55a6.227,6.227,0,0,0-6.217,6.217v53.795A6.227,6.227,0,0,0,15.6-25.321H57.472a6.227,6.227,0,0,0,6.217-6.217V-75.691a5.081,5.081,0,0,0-1.523-3.679L51.382-90.028C50.367-91.043,47.7-91.55,47.7-91.55Z" transform="translate(-9.386 91.55)" fill="#f9eced" stroke="#d7373f" stroke-miterlimit="10" stroke-width="3"/>
      </g>
      <g id="Group_160820" data-name="Group 160820" transform="translate(8.122 11.898)">
        <path id="Path_101405" data-name="Path 101405" d="M28.19,0H0" fill="none" stroke="#d7373f" stroke-linecap="round" stroke-width="4"/>
        <path id="Path_101406" data-name="Path 101406" d="M28.19,0H0" transform="translate(0 6.686)" fill="none" stroke="#d7373f" stroke-linecap="round" stroke-width="4"/>
        <path id="Path_102842" data-name="Path 102842" d="M28.19,0H0" transform="translate(0 13.125)" fill="none" stroke="#d7373f" stroke-linecap="round" stroke-width="4"/>
      </g>
    </g>
    <g id="Group_160835" data-name="Group 160835" transform="translate(139.724 82.912)">
      <g id="Group_160832" data-name="Group 160832" transform="translate(0 0)">
        <path id="Path_101157-2" data-name="Path 101157" d="M15.6-91.55a6.227,6.227,0,0,0-6.217,6.217v53.795A6.227,6.227,0,0,0,15.6-25.321H57.472a6.227,6.227,0,0,0,6.217-6.217V-75.691a5.081,5.081,0,0,0-1.523-3.679L51.382-90.028C50.367-91.043,47.7-91.55,47.7-91.55Z" transform="translate(-9.386 91.55)" fill="#f9eced" stroke="#d7373f" stroke-miterlimit="10" stroke-width="3"/>
      </g>
      <g id="Group_160833" data-name="Group 160833" transform="translate(8.122 11.898)">
        <path id="Path_101405-2" data-name="Path 101405" d="M28.19,0H0" fill="none" stroke="#d7373f" stroke-linecap="round" stroke-width="4"/>
        <path id="Path_101406-2" data-name="Path 101406" d="M28.19,0H0" transform="translate(0 6.686)" fill="none" stroke="#d7373f" stroke-linecap="round" stroke-width="4"/>
        <path id="Path_102842-2" data-name="Path 102842" d="M28.19,0H0" transform="translate(0 13.125)" fill="none" stroke="#d7373f" stroke-linecap="round" stroke-width="4"/>
      </g>
    </g>
    <g id="Group_160834" data-name="Group 160834" transform="translate(291.378 82.912)">
      <g id="Group_160756-2" data-name="Group 160756" transform="translate(0 0)">
        <path id="Path_101157-3" data-name="Path 101157" d="M15.6-91.55a6.227,6.227,0,0,0-6.217,6.217v53.795A6.227,6.227,0,0,0,15.6-25.321H57.472a6.227,6.227,0,0,0,6.217-6.217V-75.691a5.081,5.081,0,0,0-1.523-3.679L51.382-90.028C50.367-91.043,47.7-91.55,47.7-91.55Z" transform="translate(-9.386 91.55)" fill="#f9eced" stroke="#d7373f" stroke-miterlimit="10" stroke-width="3"/>
      </g>
      <g id="Group_160820-2" data-name="Group 160820" transform="translate(9.779 11.898)">
        <path id="Path_101405-3" data-name="Path 101405" d="M28.19,0H0" fill="none" stroke="#d7373f" stroke-linecap="round" stroke-width="4"/>
        <path id="Path_101406-3" data-name="Path 101406" d="M28.19,0H0" transform="translate(0 6.686)" fill="none" stroke="#d7373f" stroke-linecap="round" stroke-width="4"/>
        <path id="Path_102842-3" data-name="Path 102842" d="M28.19,0H0" transform="translate(0 13.125)" fill="none" stroke="#d7373f" stroke-linecap="round" stroke-width="4"/>
      </g>
    </g>
    <rect id="Rectangle_154218" data-name="Rectangle 154218" width="20" height="42" transform="translate(236 102)" fill="#fff"/>
    <path id="Path_102848" data-name="Path 102848" d="M-282.644-42.1l-5.451-7.121c-.527-.7-1.319-2.11-2.637-1.319-1.319.967-.527,1.934,0,2.813,1.67,2.725,4.66,6.506,6.066,8.616a2.155,2.155,0,0,1,.352,1.319,2.515,2.515,0,0,1-.44,1.495,9.891,9.891,0,0,1-1.055,1.846c-.352.615-.7,1.143-1.055,1.67a5.659,5.659,0,0,0-2.11-.44,5.629,5.629,0,0,0-5.626,5.714,5.685,5.685,0,0,0,5.626,5.714,5.685,5.685,0,0,0,5.626-5.714,5.317,5.317,0,0,0-.791-2.9,14.1,14.1,0,0,1,1.494-3.692c.879-1.934,2.462-1.934,3.341,0a31.907,31.907,0,0,1,1.495,3.692,5.533,5.533,0,0,0-.791,2.9,5.685,5.685,0,0,0,5.626,5.714,5.629,5.629,0,0,0,5.626-5.714,5.685,5.685,0,0,0-5.626-5.714,5.659,5.659,0,0,0-2.11.44c-.615-1.231-1.231-2.2-1.846-3.429-.44-.879-.791-2.11-.264-2.9,1.407-2.11,4.659-5.89,6.242-8.7.528-.967,1.143-1.846-.176-2.813-1.407-.791-2.022.615-2.549,1.319l-5.626,7.121C-280.885-39.731-281.061-39.819-282.644-42.1Zm-6.33,11.6a2.818,2.818,0,0,1,2.9,2.9,3.21,3.21,0,0,1-2.9,3.341,3.115,3.115,0,0,1-3.077-3.077A3.193,3.193,0,0,1-288.974-30.5Zm16.088,0a3.115,3.115,0,0,1,3.077,3.077,3.115,3.115,0,0,1-3.077,3.077,3.153,3.153,0,0,1-2.9-3.341A2.748,2.748,0,0,1-272.885-30.5Z" transform="translate(523.824 159.338)" fill="#1473e6"/>
    <g id="Group_155518" data-name="Group 155518" transform="translate(40.548 29.875)">
      <line id="Line_6847" data-name="Line 6847" y2="2.637" transform="translate(5.391 0)" fill="none" stroke="#44b755" stroke-linecap="round" stroke-width="3"/>
      <line id="Line_6848" data-name="Line 6848" y2="2.637" transform="translate(5.391 8.143)" fill="none" stroke="#44b755" stroke-linecap="round" stroke-width="3"/>
      <line id="Line_6850" data-name="Line 6850" y2="2.637" transform="translate(10.781 5.39) rotate(90)" fill="none" stroke="#44b755" stroke-linecap="round" stroke-width="3"/>
      <line id="Line_6849" data-name="Line 6849" y2="2.637" transform="translate(2.637 5.39) rotate(90)" fill="none" stroke="#44b755" stroke-linecap="round" stroke-width="3"/>
    </g>
    <g id="Group_155517" data-name="Group 155517" transform="translate(2 40.288)">
      <line id="Line_6847-2" data-name="Line 6847" y2="7.217" transform="translate(11.628 0)" fill="none" stroke="#0d66d0" stroke-linecap="round" stroke-width="3"/>
      <line id="Line_6848-2" data-name="Line 6848" y2="7.217" transform="translate(11.628 16.039)" fill="none" stroke="#0d66d0" stroke-linecap="round" stroke-width="3"/>
      <line id="Line_6850-2" data-name="Line 6850" y2="7.217" transform="translate(23.256 11.628) rotate(90)" fill="none" stroke="#0d66d0" stroke-linecap="round" stroke-width="3"/>
      <line id="Line_6849-2" data-name="Line 6849" y2="7.217" transform="translate(7.217 11.628) rotate(90)" fill="none" stroke="#0d66d0" stroke-linecap="round" stroke-width="3"/>
    </g>
    <g id="Group_156060" data-name="Group 156060" transform="translate(383.673 177.569)">
      <line id="Line_6847-3" data-name="Line 6847" y2="2.637" transform="translate(5.391)" fill="none" stroke="#ffc294" stroke-linecap="round" stroke-width="3"/>
      <line id="Line_6848-3" data-name="Line 6848" y2="2.637" transform="translate(5.391 8.143)" fill="none" stroke="#ffc294" stroke-linecap="round" stroke-width="3"/>
      <line id="Line_6850-3" data-name="Line 6850" y2="2.637" transform="translate(10.781 5.39) rotate(90)" fill="none" stroke="#ffc294" stroke-linecap="round" stroke-width="3"/>
      <line id="Line_6849-3" data-name="Line 6849" y2="2.637" transform="translate(2.637 5.39) rotate(90)" fill="none" stroke="#ffc294" stroke-linecap="round" stroke-width="3"/>
    </g>
  </g>
</svg>
